<svg width="228.89378662109374px" height="124.39999999999999px" xmlns="http://www.w3.org/2000/svg" viewBox="135.55310668945313 12.800000000000004 228.89378662109374 124.39999999999999" style="background: rgba(0, 0, 0, 0);" preserveAspectRatio="xMidYMid"><defs><filter id="editing-hole" x="-100%" y="-100%" width="300%" height="300%"><feFlood flood-color="#000000" result="black"></feFlood><feMorphology operator="dilate" radius="2" in="SourceGraphic" result="erode"></feMorphology><feGaussianBlur in="erode" stdDeviation="4" result="blur"></feGaussianBlur><feOffset in="blur" dx="2" dy="2" result="offset"></feOffset><feComposite operator="atop" in="offset" in2="black" result="merge"></feComposite><feComposite operator="in" in="merge" in2="SourceGraphic" result="inner-shadow"></feComposite></filter></defs><g filter="url(#editing-hole)"><g transform="translate(172.34001064300537, 100.12000465393066)"><path d="M12.16-47.94L12.16 0L6.78 0L6.78-47.30L12.16-47.94ZM34.62-33.73L19.52-18.50L36.42 0L29.31 0L12.74-18.43L27.71-33.73L34.62-33.73ZM57.60-49.47L57.60-49.47Q59.39-49.47 60.48-48.42L60.48-48.42L60.48-48.42Q61.57-47.36 61.57-45.70L61.57-45.70L61.57-45.70Q61.57-44.03 60.48-42.98L60.48-42.98L60.48-42.98Q59.39-41.92 57.60-41.92L57.60-41.92L57.60-41.92Q55.87-41.92 54.82-42.98L54.82-42.98L54.82-42.98Q53.76-44.03 53.76-45.70L53.76-45.70L53.76-45.70Q53.76-47.36 54.82-48.42L54.82-48.42L54.82-48.42Q55.87-49.47 57.60-49.47L57.60-49.47ZM61.89-33.73L61.89-4.29L71.36-4.29L71.36 0L46.14 0L46.14-4.29L56.51-4.29L56.51-29.44L46.46-29.44L46.46-33.73L61.89-33.73ZM110.02-1.73L110.02-1.73Q108.29-0.58 105.82 0.06L105.82 0.06L105.82 0.06Q103.36 0.70 100.93 0.70L100.93 0.70L100.93 0.70Q95.62 0.70 92.61-2.08L92.61-2.08L92.61-2.08Q89.60-4.86 89.60-9.41L89.60-9.41L89.60-29.50L81.86-29.50L81.86-33.73L89.60-33.73L89.60-41.34L94.98-41.98L94.98-33.73L106.69-33.73L105.98-29.50L94.98-29.50L94.98-9.47L94.98-9.47Q94.98-6.59 96.51-5.18L96.51-5.18L96.51-5.18Q98.05-3.78 101.44-3.78L101.44-3.78L101.44-3.78Q104.90-3.78 107.90-5.38L107.90-5.38L110.02-1.73ZM145.79-7.36L145.79-7.36Q145.79-5.38 146.43-4.45L146.43-4.45L146.43-4.45Q147.07-3.52 148.54-3.07L148.54-3.07L147.20 0.77L147.20 0.77Q142.27 0.13 141.06-4.03L141.06-4.03L141.06-4.03Q139.26-1.73 136.54-0.51L136.54-0.51L136.54-0.51Q133.82 0.70 130.50 0.70L130.50 0.70L130.50 0.70Q125.44 0.70 122.53-2.11L122.53-2.11L122.53-2.11Q119.62-4.93 119.62-9.66L119.62-9.66L119.62-9.66Q119.62-14.85 123.68-17.66L123.68-17.66L123.68-17.66Q127.74-20.48 135.36-20.48L135.36-20.48L140.35-20.48L140.35-23.23L140.35-23.23Q140.35-26.82 138.30-28.38L138.30-28.38L138.30-28.38Q136.26-29.95 132.35-29.95L132.35-29.95L132.35-29.95Q128.51-29.95 123.58-28.22L123.58-28.22L122.11-32.32L122.11-32.32Q128.06-34.43 133.18-34.43L133.18-34.43L133.18-34.43Q139.33-34.43 142.56-31.55L142.56-31.55L142.56-31.55Q145.79-28.67 145.79-23.55L145.79-23.55L145.79-7.36ZM131.84-3.33L131.84-3.33Q134.34-3.33 136.61-4.61L136.61-4.61L136.61-4.61Q138.88-5.89 140.35-8.13L140.35-8.13L140.35-16.77L135.49-16.77L135.49-16.77Q130.11-16.77 127.74-14.98L127.74-14.98L127.74-14.98Q125.38-13.18 125.38-9.73L125.38-9.73L125.38-9.73Q125.38-3.33 131.84-3.33L131.84-3.33Z" fill="#ccc"></path></g></g><style>text {
  font-size: 64px;
  font-family: Arial Black;
  dominant-baseline: central;
  text-anchor: middle;
}</style></svg>