<svg width="159.5591064453125px" height="59.6px" xmlns="http://www.w3.org/2000/svg" viewBox="170.22044677734374 45.2 159.5591064453125 59.6" style="background: rgba(0, 0, 0, 0);" preserveAspectRatio="xMidYMid"><defs><filter id="editing-hole" x="-100%" y="-100%" width="300%" height="300%"><feFlood flood-color="#000" result="black"></feFlood><feMorphology operator="dilate" radius="2" in="SourceGraphic" result="erode"></feMorphology><feGaussianBlur in="erode" stdDeviation="4" result="blur"></feGaussianBlur><feOffset in="blur" dx="2" dy="2" result="offset"></feOffset><feComposite operator="atop" in="offset" in2="black" result="merge"></feComposite><feComposite operator="in" in="merge" in2="SourceGraphic" result="inner-shadow"></feComposite></filter></defs><g filter="url(#editing-hole)"><g transform="translate(199.4600646495819, 86.50000095367432)"><path d="M12.08-1.71L12.08-1.71L12.08-1.71Q11.03-0.65 9.59-0.08L9.59-0.08L9.59-0.08Q8.15 0.50 6.73 0.50L6.73 0.50L6.73 0.50Q5.30 0.50 4.80 0.25L4.80 0.25L4.03 4.50L-1.05 5L2.40-12.75L6.48-13.18L6.15-11.45L6.15-11.45Q7.20-13.23 9.38-13.23L9.38-13.23L9.38-13.23Q11.83-13.23 13.13-11.65L13.13-11.65L13.13-11.65Q14.28-10.23 14.28-8.05L14.28-8.05L14.28-8.05Q14.28-5.88 13.70-4.33L13.70-4.33L13.70-4.33Q13.13-2.78 12.08-1.71ZM6.43-8.72L5.10-1.40L5.10-1.40Q5.63-0.95 6.28-0.95L6.28-0.95L6.28-0.95Q6.93-0.95 7.30-1.20L7.30-1.20L7.30-1.20Q7.68-1.45 7.95-1.95L7.95-1.95L7.95-1.95Q8.70-3.30 9.30-7.40L9.30-7.40L9.30-7.40Q9.47-8.60 9.47-9.78L9.47-9.78L9.47-9.78Q9.47-10.95 9.21-11.33L9.21-11.33L9.21-11.33Q8.95-11.70 8.45-11.70L8.45-11.70L8.45-11.70Q6.93-11.70 6.43-8.72L6.43-8.72ZM28.35-2.78L28.35-2.78L28.35-2.78Q28.35-1.68 29.48-1.35L29.48-1.35L29.48-1.35Q29.20-0.43 28.13 0.08L28.13 0.08L28.13 0.08Q27.23 0.50 26.24 0.50L26.24 0.50L26.24 0.50Q25.25 0.50 24.74 0.24L24.74 0.24L24.74 0.24Q24.23-0.03 23.95-0.45L23.95-0.45L23.95-0.45Q23.50-1.10 23.50-2.33L23.50-2.33L23.50-2.33Q23.50-3.05 23.90-5.05L23.90-5.05L24.25-6.95L24.25-6.95Q24.68-9.13 24.68-9.93L24.68-9.93L24.68-9.93Q24.68-11.33 23.90-11.33L23.90-11.33L23.90-11.33Q22.93-11.33 22.30-9.90L22.30-9.90L22.30-9.90Q22.05-9.35 21.88-8.53L21.88-8.53L20.18 0L15.15 0.50L18.68-17.50L23.70-18L23.50-17L23.50-17Q22.80-13.15 22.20-11.85L22.20-11.85L22.20-11.85Q23.60-13.25 26.18-13.25L26.18-13.25L26.18-13.25Q28.90-13.25 29.40-11.45L29.40-11.45L29.40-11.45Q29.58-10.88 29.58-10.38L29.58-10.38L29.58-10.38Q29.58-9.88 29.54-9.49L29.54-9.49L29.54-9.49Q29.50-9.10 29.38-8.40L29.38-8.40L29.05-6.60L28.48-3.78L28.48-3.78Q28.35-3.20 28.35-2.78ZM36.95 0.50L36.95 0.50L36.95 0.50Q31.45 0.50 31.45-4.67L31.45-4.67L31.45-4.67Q31.45-8.35 33.48-10.73L33.48-10.73L33.48-10.73Q35.63-13.25 39.35-13.25L39.35-13.25L39.35-13.25Q42.05-13.25 43.43-12L43.43-12L43.43-12Q44.80-10.75 44.80-8.13L44.80-8.13L44.80-8.13Q44.80-4.13 42.65-1.80L42.65-1.80L42.65-1.80Q40.55 0.50 36.95 0.50ZM37.60-10.38L37.60-10.38L37.60-10.38Q37.30-9.70 37.06-8.69L37.06-8.69L37.06-8.69Q36.83-7.68 36.53-6.08L36.53-6.08L36.53-6.08Q36.23-4.48 36.23-2.50L36.23-2.50L36.23-2.50Q36.23-1.85 36.44-1.43L36.44-1.43L36.44-1.43Q36.65-1 37.23-1L37.23-1L37.23-1Q37.80-1 38.16-1.28L38.16-1.28L38.16-1.28Q38.53-1.55 38.80-2.20L38.80-2.20L38.80-2.20Q39.30-3.35 39.70-5.49L39.70-5.49L39.70-5.49Q40.10-7.63 40.14-8.55L40.14-8.55L40.14-8.55Q40.18-9.47 40.18-10.16L40.18-10.16L40.18-10.16Q40.18-10.85 39.98-11.30L39.98-11.30L39.98-11.30Q39.78-11.75 39.21-11.75L39.21-11.75L39.21-11.75Q38.65-11.75 38.28-11.40L38.28-11.40L38.28-11.40Q37.90-11.05 37.60-10.38ZM46.23-0.63L46.08-3.70L49.20-6.10L51.15-7.70L51.15-7.70Q52.15-8.55 52.88-9.30L52.88-9.30L52.88-9.30Q54.20-10.63 54.20-11.90L54.20-11.90L54.20-11.90Q54.20-12.65 53.71-13.05L53.71-13.05L53.71-13.05Q53.23-13.45 52.51-13.45L52.51-13.45L52.51-13.45Q51.80-13.45 51.29-13.29L51.29-13.29L51.29-13.29Q50.78-13.13 50.33-12.85L50.33-12.85L50.33-12.85Q49.38-12.23 48.93-11.28L48.93-11.28L48.93-11.28Q48.30-11.30 47.89-11.83L47.89-11.83L47.89-11.83Q47.48-12.35 47.48-13.11L47.48-13.11L47.48-13.11Q47.48-13.88 47.95-14.59L47.95-14.59L47.95-14.59Q48.43-15.30 49.27-15.85L49.27-15.85L49.27-15.85Q51.13-17 53.66-17L53.66-17L53.66-17Q56.20-17 57.63-15.90L57.63-15.90L57.63-15.90Q59.05-14.80 59.05-12.93L59.05-12.93L59.05-12.93Q59.05-11.53 58.36-10.25L58.36-10.25L58.36-10.25Q57.68-8.97 55.85-7.68L55.85-7.68L53.15-5.78L51.53-4.70L49.45-3.43L50.33-3.33L50.33-3.33Q50.93-3.25 51.98-3.25L51.98-3.25L51.98-3.25Q53.03-3.25 53.90-3.36L53.90-3.36L53.90-3.36Q54.78-3.48 55.53-3.70L55.53-3.70L55.53-3.70Q57.18-4.15 57.70-4.78L57.70-4.78L57.70-4.78Q57.98-4.58 58.19-4.06L58.19-4.06L58.19-4.06Q58.40-3.55 58.40-2.93L58.40-2.93L58.40-2.93Q58.40-1.05 56.98-0.28L56.98-0.28L56.98-0.28Q55.55 0.50 52.63 0.50L52.63 0.50L52.63 0.50Q51.10 0.50 49.08 0.06L49.08 0.06L49.08 0.06Q47.05-0.38 46.23-0.63L46.23-0.63ZM65.75 0.50L65.75 0.50L65.75 0.50Q60.25 0.50 60.25-4.67L60.25-4.67L60.25-4.67Q60.25-8.35 62.27-10.73L62.27-10.73L62.27-10.73Q64.42-13.25 68.15-13.25L68.15-13.25L68.15-13.25Q70.85-13.25 72.22-12L72.22-12L72.22-12Q73.60-10.75 73.60-8.13L73.60-8.13L73.60-8.13Q73.60-4.13 71.45-1.80L71.45-1.80L71.45-1.80Q69.35 0.50 65.75 0.50ZM66.40-10.38L66.40-10.38L66.40-10.38Q66.10-9.70 65.86-8.69L65.86-8.69L65.86-8.69Q65.63-7.68 65.33-6.08L65.33-6.08L65.33-6.08Q65.03-4.48 65.03-2.50L65.03-2.50L65.03-2.50Q65.03-1.85 65.24-1.43L65.24-1.43L65.24-1.43Q65.45-1 66.03-1L66.03-1L66.03-1Q66.60-1 66.96-1.28L66.96-1.28L66.96-1.28Q67.33-1.55 67.60-2.20L67.60-2.20L67.60-2.20Q68.10-3.35 68.50-5.49L68.50-5.49L68.50-5.49Q68.90-7.63 68.94-8.55L68.94-8.55L68.94-8.55Q68.97-9.47 68.97-10.16L68.97-10.16L68.97-10.16Q68.97-10.85 68.78-11.30L68.78-11.30L68.78-11.30Q68.58-11.75 68.01-11.75L68.01-11.75L68.01-11.75Q67.45-11.75 67.08-11.40L67.08-11.40L67.08-11.40Q66.70-11.05 66.40-10.38ZM80.53 0.50L80.53 0.50L80.53 0.50Q75.03 0.50 75.03-4.67L75.03-4.67L75.03-4.67Q75.03-8.35 77.05-10.73L77.05-10.73L77.05-10.73Q79.20-13.25 82.93-13.25L82.93-13.25L82.93-13.25Q85.63-13.25 87-12L87-12L87-12Q88.38-10.75 88.38-8.13L88.38-8.13L88.38-8.13Q88.38-4.13 86.23-1.80L86.23-1.80L86.23-1.80Q84.13 0.50 80.53 0.50ZM81.18-10.38L81.18-10.38L81.18-10.38Q80.88-9.70 80.64-8.69L80.64-8.69L80.64-8.69Q80.40-7.68 80.10-6.08L80.10-6.08L80.10-6.08Q79.80-4.48 79.80-2.50L79.80-2.50L79.80-2.50Q79.80-1.85 80.01-1.43L80.01-1.43L80.01-1.43Q80.23-1 80.80-1L80.80-1L80.80-1Q81.38-1 81.74-1.28L81.74-1.28L81.74-1.28Q82.10-1.55 82.38-2.20L82.38-2.20L82.38-2.20Q82.88-3.35 83.28-5.49L83.28-5.49L83.28-5.49Q83.68-7.63 83.71-8.55L83.71-8.55L83.71-8.55Q83.75-9.47 83.75-10.16L83.75-10.16L83.75-10.16Q83.75-10.85 83.55-11.30L83.55-11.30L83.55-11.30Q83.35-11.75 82.79-11.75L82.79-11.75L82.79-11.75Q82.23-11.75 81.85-11.40L81.85-11.40L81.85-11.40Q81.48-11.05 81.18-10.38ZM97.33-8.78L97.33-8.78L97.33-8.78Q97.68-9.70 97.68-10.50L97.68-10.50L97.68-10.50Q97.68-11.98 96.48-11.98L96.48-11.98L96.48-11.98Q95.85-11.98 95.34-11.41L95.34-11.41L95.34-11.41Q94.83-10.85 94.83-10.15L94.83-10.15L94.83-10.15Q94.83-9.65 95.23-9.25L95.23-9.25L95.23-9.25Q95.80-8.70 97.28-7.80L97.28-7.80L97.28-7.80Q98.75-6.90 99.31-6.16L99.31-6.16L99.31-6.16Q99.88-5.43 99.88-4.41L99.88-4.41L99.88-4.41Q99.88-3.40 99.39-2.48L99.39-2.48L99.39-2.48Q98.90-1.55 98.03-0.90L98.03-0.90L98.03-0.90Q96.15 0.50 93.15 0.50L93.15 0.50L93.15 0.50Q91.53 0.50 90.28-0.35L90.28-0.35L90.28-0.35Q89.03-1.18 89.03-2.15L89.03-2.15L89.03-2.15Q89.03-3.13 89.74-3.70L89.74-3.70L89.74-3.70Q90.45-4.28 91.50-4.28L91.50-4.28L91.50-4.28Q92.55-4.28 93.20-3.88L93.20-3.88L93.20-3.88Q92.88-3.05 92.88-2.50L92.88-2.50L92.88-2.50Q92.88-0.85 94.28-0.85L94.28-0.85L94.28-0.85Q94.88-0.85 95.28-1.23L95.28-1.23L95.28-1.23Q95.68-1.60 95.68-2.25L95.68-2.25L95.68-2.25Q95.68-3.53 93.53-4.88L93.53-4.88L93.53-4.88Q91.78-6.03 91.38-6.48L91.38-6.48L91.38-6.48Q90.70-7.28 90.70-8.28L90.70-8.28L90.70-8.28Q90.70-9.28 91.18-10.23L91.18-10.23L91.18-10.23Q91.65-11.18 92.53-11.85L92.53-11.85L92.53-11.85Q94.35-13.25 97.53-13.25L97.53-13.25L97.53-13.25Q99.15-13.25 100.11-12.60L100.11-12.60L100.11-12.60Q101.08-11.95 101.08-10.85L101.08-10.85L101.08-10.85Q101.08-9.75 100.41-9.13L100.41-9.13L100.41-9.13Q99.75-8.50 98.55-8.50L98.55-8.50L98.55-8.50Q97.73-8.50 97.33-8.78Z" fill="#ccc"></path></g></g><style>text {
  font-size: 64px;
  font-family: Arial Black;
  dominant-baseline: central;
  text-anchor: middle;
}</style></svg>