<svg xmlns="http://www.w3.org/2000/svg" xmlns:xlink="http://www.w3.org/1999/xlink" width="1200px" height="1200px" viewBox="0 0 1200 1200">
  <g id="6AWEHgE3C2z3Wf8_ylbey">
<rect style="stroke: rgb(193,193,193); stroke-width: 0; stroke-dasharray: none; stroke-linecap: butt; stroke-dashoffset: 0; stroke-linejoin: miter; stroke-miterlimit: 4; fill: rgb(255,255,255); fill-rule: nonzero; opacity: 0;" x="-600" y="-600" rx="0" ry="0" width="1200" height="1200" transform="matrix(1 0 0 1 600 600)"/>
</g>
<g id="UqUO7pn6JL_GnXdT09m_G">
<g style="" vector-effect="non-scaling-stroke">
		<g id="QH_-T_jnTnNLbxtjylGsv">
<path style="stroke: rgb(193,193,193); stroke-width: 0; stroke-dasharray: none; stroke-linecap: butt; stroke-dashoffset: 0; stroke-linejoin: miter; stroke-miterlimit: 4; fill: rgb(195,151,83); fill-rule: nonzero; opacity: 1;" transform="matrix(1.515383 0 0 1.523023 600.821469 600.227318) matrix(1 0 0 1 0 0)  translate(-479.481595, -430.945153)" d="M 455.00 785.42 C 403.85 782.69 343.31 773.40 310.00 763.18 C 306.43 762.08 297.43 759.38 290.00 757.17 C 276.32 753.10 254.40 745.19 248.00 742.01 C 246.07 741.05 242.70 739.70 240.50 739.01 C 238.30 738.31 234.25 736.71 231.50 735.44 C 228.75 734.17 221.10 731.01 214.50 728.42 C 200.81 723.04 178.04 711.98 173.32 708.41 C 171.57 707.08 169.87 706.00 169.56 706.00 C 168.21 706.00 152.68 692.75 142.62 683.02 C 128.83 669.68 120.12 658.60 109.58 640.98 C 103.86 631.42 101.34 626.50 95.98 614.50 C 89.18 599.24 83.00 567.50 83.00 547.76 C 83.00 537.10 85.63 517.47 89.13 502.00 C 97.86 463.43 119.02 413.24 143.82 372.28 L 150.00 362.07 L 150.02 352.78 C 150.03 347.68 150.46 339.45 150.97 334.50 C 151.49 329.55 152.17 321.90 152.50 317.50 C 152.82 313.10 153.53 304.32 154.07 298.00 C 154.61 291.68 155.50 281.10 156.03 274.50 C 157.62 255.02 159.06 240.60 159.57 239.10 C 159.84 238.32 160.93 231.12 161.99 223.10 C 166.53 188.86 172.02 166.77 182.62 140.14 C 189.94 121.75 192.34 116.67 197.69 108.22 C 211.03 87.15 232.56 74.33 250.98 76.47 C 278.62 79.68 305.57 100.98 346.49 152.00 C 358.41 166.87 364.74 174.44 372.80 183.50 L 378.14 189.50 L 398.32 189.67 C 419.85 189.85 428.45 190.71 447.50 194.60 C 480.11 201.26 479.50 201.25 511.86 195.05 C 537.79 190.08 551.85 188.71 569.00 189.46 L 582.50 190.05 L 587.76 183.77 C 590.65 180.32 594.25 176.09 595.76 174.37 C 597.27 172.65 604.91 163.36 612.74 153.71 C 650.80 106.86 673.83 86.76 699.00 78.43 C 706.58 75.93 720.67 75.92 727.93 78.41 C 740.57 82.76 752.92 92.96 762.35 106.83 C 771.39 120.15 783.45 149.68 788.95 172.00 C 790.11 176.68 791.46 182.07 791.97 184.00 C 792.70 186.77 796.84 211.33 800.50 234.50 C 801.00 237.69 805.25 284.73 807.01 306.50 C 807.58 313.65 808.48 323.55 809.00 328.50 C 809.52 333.45 810.23 343.80 810.58 351.50 C 811.18 364.74 811.36 365.69 813.93 369.00 C 829.52 389.07 859.23 455.31 868.03 489.65 C 877.24 525.56 878.49 562.16 871.47 590.00 C 866.03 611.56 859.29 626.88 846.17 647.50 C 840.21 656.87 826.23 673.81 817.00 682.84 C 808.49 691.16 792.36 704.74 788.25 707.03 C 786.74 707.88 783.67 709.74 781.42 711.19 C 774.70 715.51 760.24 722.47 747.50 727.53 C 740.90 730.14 735.05 732.61 734.50 733.00 C 733.95 733.39 732.15 734.19 730.50 734.78 C 728.85 735.36 723.67 737.48 719.00 739.49 C 693.44 750.45 644.66 765.68 615.11 771.93 C 597.22 775.71 564.69 780.25 532.00 783.52 C 517.37 784.99 469.16 786.17 455.00 785.42 Z M 519.50 768.42 C 565.90 765.02 590.82 761.13 640.43 749.50 C 653.89 746.34 682.31 736.27 694.50 730.34 C 717.26 719.26 730.45 709.95 742.42 696.49 C 765.69 670.33 776.73 640.85 780.16 595.70 C 782.11 569.95 779.53 549.33 771.87 529.44 C 765.43 512.70 757.12 500.83 745.13 491.20 C 727.39 476.96 711.09 472.00 682.03 472.00 C 661.08 472.00 646.15 474.17 610.50 482.42 C 593.28 486.40 586.47 486.72 577.86 483.96 C 573.91 482.68 565.90 478.74 560.08 475.20 C 539.18 462.47 525.17 456.22 505.50 450.82 C 494.66 447.85 492.19 447.53 480.00 447.55 C 465.98 447.56 460.46 448.62 441.00 455.05 C 432.61 457.82 416.33 465.54 407.86 470.76 C 381.71 486.86 376.54 487.68 344.00 480.93 C 305.09 472.85 305.47 472.90 284.36 472.31 C 257.97 471.58 245.45 473.69 229.98 481.50 C 215.70 488.70 200.37 504.42 192.55 519.89 C 187.61 529.66 182.10 549.11 180.49 562.50 C 179.30 572.39 179.82 599.77 181.41 611.07 C 184.46 632.71 193.83 662.72 201.20 674.40 C 209.97 688.31 223.24 703.57 234.00 712.11 C 239.49 716.47 255.68 726.10 262.50 729.07 C 265.25 730.26 269.98 732.36 273.00 733.73 C 301.40 746.54 367.91 761.86 413.24 766.02 C 419.43 766.59 429.45 767.53 435.50 768.12 C 465.92 771.05 482.66 771.11 519.50 768.42 Z M 568.00 388.34 C 588.49 383.06 604.12 376.73 609.20 371.64 C 615.55 365.29 616.82 355.99 612.25 349.23 C 607.71 342.51 602.13 338.64 590.50 334.17 C 575.27 328.31 554.42 332.12 542.73 342.90 C 534.72 350.28 530.22 364.76 532.89 374.60 C 536.79 389.04 548.09 393.46 568.00 388.34 Z M 419.02 388.15 C 420.93 387.13 423.83 384.34 425.45 381.95 C 428.03 378.14 428.46 376.51 428.82 368.91 C 429.50 354.70 425.75 346.46 415.49 339.64 C 403.97 331.96 389.34 329.48 376.01 332.94 C 361.20 336.78 351.14 343.59 347.55 352.22 C 345.55 357.02 345.59 360.34 347.72 364.82 C 352.88 375.71 366.24 382.15 398.50 389.32 C 399.60 389.57 403.88 389.82 408.02 389.88 C 413.58 389.97 416.44 389.52 419.02 388.15 Z M 221.04 299.98 C 223.22 298.87 228.49 295.68 232.75 292.89 C 246.18 284.12 274.96 270.68 298.00 262.43 C 314.26 256.61 328.63 248.18 332.82 242.00 C 337.48 235.12 334.68 225.20 321.80 203.00 C 307.54 178.40 295.88 162.77 280.04 147.00 C 266.67 133.68 262.15 130.73 253.28 129.53 C 250.08 129.09 246.72 129.27 244.56 129.98 C 240.48 131.33 234.25 138.02 230.64 144.92 C 222.12 161.21 209.80 209.71 205.48 244.00 C 203.37 260.72 202.52 291.20 204.08 294.23 C 208.04 301.93 213.56 303.80 221.04 299.98 Z M 752.24 300.62 C 755.51 298.13 757.27 291.97 757.15 283.50 C 756.89 266.43 754.46 240.71 751.39 222.54 C 748.67 206.41 739.14 167.18 736.04 159.29 C 735.00 156.66 733.35 152.29 732.38 149.60 C 728.53 138.92 717.40 128.00 710.38 128.00 C 698.62 128.00 676.38 147.55 656.36 175.50 C 649.51 185.06 631.10 216.25 628.31 223.00 C 621.25 240.14 628.55 248.95 660.16 261.41 C 666.58 263.93 672.29 266.00 672.87 266.00 C 674.26 266.00 702.41 278.81 712.50 284.03 C 716.90 286.31 721.93 289.26 723.68 290.59 C 725.43 291.91 727.16 293.00 727.51 293.00 C 727.87 293.00 730.50 294.55 733.36 296.45 C 736.22 298.35 739.67 300.34 741.03 300.89 C 744.56 302.30 750.21 302.16 752.24 300.62 Z M 445.50 542.10 C 435.28 539.09 430.00 535.04 430.00 530.19 C 430.00 525.98 432.50 525.47 441.46 527.82 C 452.88 530.81 461.09 530.72 466.52 527.54 C 472.96 523.77 475.54 518.53 476.67 506.97 L 477.20 501.44 L 469.54 499.14 C 464.23 497.55 460.72 497.04 458.08 497.49 C 454.44 498.10 454.28 498.01 454.20 495.31 C 454.15 493.77 453.81 489.75 453.45 486.39 C 452.82 480.62 452.94 480.11 455.64 477.18 C 461.93 470.38 488.05 468.88 500.69 474.60 C 505.54 476.79 508.00 480.53 508.00 485.73 C 508.00 494.01 502.56 499.00 493.53 499.00 C 491.11 499.00 487.92 499.46 486.44 500.02 C 483.78 501.03 483.75 501.16 484.21 508.36 C 484.80 517.52 487.20 522.56 492.84 526.48 C 496.81 529.25 497.88 529.50 505.44 529.50 C 510.33 529.50 514.70 528.97 516.14 528.19 C 517.60 527.41 520.97 527.01 524.54 527.19 C 529.93 527.47 530.53 527.73 530.83 529.85 C 531.26 532.90 527.90 536.48 521.50 539.78 C 514.19 543.55 501.47 544.12 494.22 541.00 C 488.80 538.67 481.00 531.24 481.00 528.41 C 481.00 527.51 479.54 528.96 477.75 531.64 C 472.99 538.76 466.16 543.00 459.47 543.00 C 456.55 543.00 453.56 543.19 452.83 543.43 C 452.10 543.66 448.80 543.07 445.50 542.10 Z" stroke-linecap="round"/>
</g>
</g>
</g>

  </svg>